<svg id="Ebene_1" data-name="Ebene 1" xmlns="http://www.w3.org/2000/svg" viewBox="0 0 519.31 236.41"><defs><style>.cls-1{fill:#1d1d1b;}.cls-2,.cls-3{fill:#d8edf4;}.cls-2{stroke:#5a5c5b;stroke-miterlimit:10;}.cls-4{fill:#e2be24;}.cls-5{fill:#5a5c5b;}</style></defs><title>addict-ioc_logo</title><path class="cls-1" d="M213.63,421.37a12.67,12.67,0,0,1-2.93.35c-8.45,0-13.48-6.51-14.2-15.72-4.78,1.34-9.56,3.37-14.34,3.88,2.08,14.32,11.92,23.45,24,23.45a23.93,23.93,0,0,0,7.07-1C213.08,428.47,212.28,424.75,213.63,421.37Z" transform="translate(-38.96 -232.64)"/><ellipse class="cls-2" cx="178.55" cy="429.16" rx="9.42" ry="6.88" transform="translate(-248.44 -59.4) rotate(-34)"/><path class="cls-2" d="M182.9,434.49l186.77-126L362,297.12l-186.77,126c4.2-2.55,9.09-2.26,11.13.77S186.84,431.55,182.9,434.49Z" transform="translate(-38.96 -232.64)"/><rect class="cls-3" x="297.72" y="253.29" width="47.33" height="159" transform="translate(378.56 -352.39) rotate(55.99)"/><rect class="cls-4" x="254.35" y="334.87" width="47.33" height="54.37" transform="translate(383.7 -303.55) rotate(55.99)"/><path class="cls-5" d="M268.58,397.57l-0.28-.42L241.55,357.5,374.19,268l27,40.07-0.41.28Zm-25.64-39.8,25.91,38.41,131-88.36-25.91-38.41Z" transform="translate(-38.96 -232.64)"/><rect class="cls-5" x="300.32" y="323.19" width="1" height="47.16" transform="translate(705.18 233.35) rotate(145.99)"/><rect class="cls-5" x="364.45" y="218.89" width="9.08" height="163.57" transform="matrix(-0.56, -0.83, 0.83, -0.56, 287.13, 542.08)"/><rect class="cls-5" x="430.11" y="231.33" width="10.37" height="49.22" transform="translate(-107.67 54.57) rotate(-34.01)"/><path class="cls-1" d="M60.65,409.64L53.85,432H39l25.32-79h18.4l25.67,79H92.89l-7.15-22.39H60.65Zm22.63-10.9-6.21-19.46c-1.52-4.81-2.81-10.2-4-14.77H72.84c-1.17,4.57-2.34,10.08-3.75,14.77L63,398.74H83.28Z" transform="translate(-38.96 -232.64)"/><path class="cls-1" d="M169.91,348.8V416c0,5.86.23,12.19,0.47,16.06h-12.9l-0.59-9h-0.23c-3.4,6.33-10.32,10.32-18.64,10.32-13.6,0-24.38-11.61-24.38-29.19-0.12-19.11,11.84-30.48,25.56-30.48,7.85,0,13.48,3.28,16.06,7.5h0.23V348.8h14.42Zm-14.42,49.94a20.3,20.3,0,0,0-.35-3.75c-1.29-5.63-5.86-10.2-12.43-10.2-9.26,0-14.42,8.21-14.42,18.87,0,10.43,5.16,18.05,14.3,18.05A12.72,12.72,0,0,0,155,411.52a16,16,0,0,0,.47-4.22v-8.56Z" transform="translate(-38.96 -232.64)"/><path class="cls-1" d="M238,416V348.8H223.6v32.36h-0.23c-2.58-4.22-8.21-7.5-16.06-7.5-13.72,0-25.67,11.37-25.56,30.48a39.92,39.92,0,0,0,.41,5.74c4.78-.51,9.56-2.54,14.34-3.88-0.06-.76-0.1-1.53-0.1-2.33,0-10.67,5.16-18.87,14.42-18.87,6.56,0,11.14,4.57,12.43,10.2a20.3,20.3,0,0,1,.35,3.75v8.56a16,16,0,0,1-.47,4.22,12.8,12.8,0,0,1-9.5,9.85c-1.35,3.38-.55,7.1-0.43,10.91A19.4,19.4,0,0,0,224.77,423H225l0.59,9h12.9C238.25,428.16,238,421.83,238,416Z" transform="translate(-38.96 -232.64)"/><path class="cls-1" d="M268.84,359c0,4.34-3.17,7.74-8.21,7.74a7.58,7.58,0,0,1-8-7.74A8.09,8.09,0,0,1,268.84,359Zm-15.36,73V374.94H268V432H253.49Z" transform="translate(-38.96 -232.64)"/><path class="cls-1" d="M325.46,430.27c-3,1.41-9,2.93-16.18,2.93-17.82,0-29.42-11.37-29.42-29.07,0-17.12,11.72-30.48,31.77-30.48a36,36,0,0,1,14,2.7L323,387.13a25.4,25.4,0,0,0-10.9-2.23c-11,0-17.58,8.09-17.47,18.52,0,11.72,7.62,18.41,17.47,18.41a28.2,28.2,0,0,0,11.37-2.23Z" transform="translate(-38.96 -232.64)"/><path class="cls-1" d="M354.42,358.65v16.29h13.72v10.79H354.42v25.2c0,6.92,1.88,10.55,7.39,10.55a21.28,21.28,0,0,0,5.63-.7l0.23,11a31.68,31.68,0,0,1-10.43,1.41c-5.28,0-9.73-1.76-12.43-4.69-3-3.28-4.45-8.44-4.45-15.94V385.73h-8.21V374.94h8.21V362Z" transform="translate(-38.96 -232.64)"/><path class="cls-1" d="M418.3,353v79H403.88V353H418.3Z" transform="translate(-38.96 -232.64)"/><path class="cls-1" d="M488.52,403c0,21-14.77,30.36-29.31,30.36-16.18,0-28.6-11.14-28.6-29.42,0-18.76,12.31-30.25,29.54-30.25C477.15,373.65,488.52,385.61,488.52,403Zm-43,.59c0,11,5.39,19.34,14.19,19.34,8.21,0,14-8.09,14-19.58,0-8.91-4-19.11-13.83-19.11C449.6,384.2,445.5,394.05,445.5,403.55Z" transform="translate(-38.96 -232.64)"/><path class="cls-1" d="M557.57,429.69c-3.4,1.76-10.9,3.52-20.4,3.52-25.09,0-40.33-15.71-40.33-39.74,0-26,18.05-41.73,42.2-41.73,9.5,0,16.29,2,19.23,3.52l-3.17,11.49a38.38,38.38,0,0,0-15.47-3c-16.06,0-27.67,10.08-27.67,29.07,0,17.35,10.2,28.49,27.55,28.49,5.86,0,12-1.17,15.71-2.93Z" transform="translate(-38.96 -232.64)"/><path class="cls-4" d="M175.4,436.49s-8.83,12.67-8.83,23.33,27.1,16.78,17.55-8.67C179.85,439.79,175.4,436.49,175.4,436.49Z" transform="translate(-38.96 -232.64)"/></svg>